<mxfile host="app.diagrams.net" agent="Mozilla/5.0 (Windows NT 10.0; Win64; x64) AppleWebKit/537.36 (KHTML, like Gecko) Chrome/141.0.0.0 Safari/537.36 Edg/141.0.0.0" version="28.2.3">
  <diagram name="第 1 页" id="SBFmUtqrQ55cQ_EI7Ord">
    <mxGraphModel dx="1205" dy="666" grid="1" gridSize="10" guides="1" tooltips="1" connect="1" arrows="1" fold="1" page="1" pageScale="1" pageWidth="827" pageHeight="1169" math="0" shadow="0">
      <root>
        <mxCell id="0" />
        <mxCell id="1" parent="0" />
        <mxCell id="6FTb0QfE17CixWi7cLc3-17" value="" style="verticalLabelPosition=bottom;sketch=1;aspect=fixed;html=1;verticalAlign=top;strokeColor=none;align=center;outlineConnect=0;shape=mxgraph.citrix.cloud;shadow=0;curveFitting=1;jiggle=2;" vertex="1" parent="1">
          <mxGeometry x="480" y="100" width="743.12" height="485" as="geometry" />
        </mxCell>
        <mxCell id="6FTb0QfE17CixWi7cLc3-1" value="" style="verticalLabelPosition=bottom;sketch=1;aspect=fixed;html=1;verticalAlign=top;strokeColor=none;align=center;outlineConnect=0;shape=mxgraph.citrix.license_server;curveFitting=1;jiggle=2;" vertex="1" parent="1">
          <mxGeometry x="600" y="227.5" width="65" height="85" as="geometry" />
        </mxCell>
        <mxCell id="6FTb0QfE17CixWi7cLc3-2" value="" style="verticalLabelPosition=bottom;sketch=1;aspect=fixed;html=1;verticalAlign=top;strokeColor=none;align=center;outlineConnect=0;shape=mxgraph.citrix.geolocation_database;curveFitting=1;jiggle=2;" vertex="1" parent="1">
          <mxGeometry x="120" y="240" width="64.9" height="60" as="geometry" />
        </mxCell>
        <mxCell id="6FTb0QfE17CixWi7cLc3-3" value="" style="verticalLabelPosition=bottom;sketch=1;aspect=fixed;html=1;verticalAlign=top;strokeColor=none;align=center;outlineConnect=0;shape=mxgraph.citrix.geolocation_database;curveFitting=1;jiggle=2;" vertex="1" parent="1">
          <mxGeometry x="120" y="449.5" width="64.9" height="60" as="geometry" />
        </mxCell>
        <mxCell id="6FTb0QfE17CixWi7cLc3-4" value="" style="verticalLabelPosition=bottom;sketch=1;aspect=fixed;html=1;verticalAlign=top;strokeColor=none;align=center;outlineConnect=0;shape=mxgraph.citrix.laptop_2;curveFitting=1;jiggle=2;" vertex="1" parent="1">
          <mxGeometry x="310" y="437" width="116" height="86.5" as="geometry" />
        </mxCell>
        <mxCell id="6FTb0QfE17CixWi7cLc3-5" value="" style="verticalLabelPosition=bottom;sketch=1;aspect=fixed;html=1;verticalAlign=top;strokeColor=none;align=center;outlineConnect=0;shape=mxgraph.citrix.license_server;curveFitting=1;jiggle=2;" vertex="1" parent="1">
          <mxGeometry x="600" y="437" width="65" height="85" as="geometry" />
        </mxCell>
        <mxCell id="6FTb0QfE17CixWi7cLc3-7" value="" style="shape=flexArrow;endArrow=classic;html=1;rounded=0;fillColor=#f5f5f5;strokeColor=#666666;sketch=1;curveFitting=1;jiggle=2;" edge="1" parent="1" source="6FTb0QfE17CixWi7cLc3-1" target="6FTb0QfE17CixWi7cLc3-2">
          <mxGeometry width="50" height="50" relative="1" as="geometry">
            <mxPoint x="390" y="370" as="sourcePoint" />
            <mxPoint x="440" y="320" as="targetPoint" />
          </mxGeometry>
        </mxCell>
        <mxCell id="6FTb0QfE17CixWi7cLc3-8" value="算力平台规则限制，其内的服务器无法直接访问互联网资源" style="text;html=1;align=center;verticalAlign=middle;whiteSpace=wrap;rounded=0;sketch=1;curveFitting=1;jiggle=2;" vertex="1" parent="1">
          <mxGeometry x="330" y="220" width="190" height="30" as="geometry" />
        </mxCell>
        <mxCell id="6FTb0QfE17CixWi7cLc3-14" value="" style="verticalLabelPosition=bottom;verticalAlign=top;html=1;shape=mxgraph.basic.x;fillColor=#e51400;strokeColor=#B20000;fontColor=#ffffff;sketch=1;curveFitting=1;jiggle=2;" vertex="1" parent="1">
          <mxGeometry x="400" y="270" width="28" height="30" as="geometry" />
        </mxCell>
        <mxCell id="6FTb0QfE17CixWi7cLc3-18" value="" style="verticalLabelPosition=bottom;sketch=1;aspect=fixed;html=1;verticalAlign=top;strokeColor=none;align=center;outlineConnect=0;shape=mxgraph.citrix.license_server;curveFitting=1;jiggle=2;" vertex="1" parent="1">
          <mxGeometry x="750" y="185" width="65" height="85" as="geometry" />
        </mxCell>
        <mxCell id="6FTb0QfE17CixWi7cLc3-19" value="" style="verticalLabelPosition=bottom;sketch=1;aspect=fixed;html=1;verticalAlign=top;strokeColor=none;align=center;outlineConnect=0;shape=mxgraph.citrix.license_server;curveFitting=1;jiggle=2;" vertex="1" parent="1">
          <mxGeometry x="762" y="290" width="65" height="85" as="geometry" />
        </mxCell>
        <mxCell id="6FTb0QfE17CixWi7cLc3-20" value="" style="verticalLabelPosition=bottom;sketch=1;aspect=fixed;html=1;verticalAlign=top;strokeColor=none;align=center;outlineConnect=0;shape=mxgraph.citrix.license_server;curveFitting=1;jiggle=2;" vertex="1" parent="1">
          <mxGeometry x="900" y="185" width="65" height="85" as="geometry" />
        </mxCell>
        <mxCell id="6FTb0QfE17CixWi7cLc3-21" value="" style="verticalLabelPosition=bottom;sketch=1;aspect=fixed;html=1;verticalAlign=top;strokeColor=none;align=center;outlineConnect=0;shape=mxgraph.citrix.license_server;curveFitting=1;jiggle=2;" vertex="1" parent="1">
          <mxGeometry x="940" y="290" width="65" height="85" as="geometry" />
        </mxCell>
        <mxCell id="6FTb0QfE17CixWi7cLc3-22" value="" style="verticalLabelPosition=bottom;sketch=1;aspect=fixed;html=1;verticalAlign=top;strokeColor=none;align=center;outlineConnect=0;shape=mxgraph.citrix.license_server;curveFitting=1;jiggle=2;" vertex="1" parent="1">
          <mxGeometry x="920" y="400" width="65" height="85" as="geometry" />
        </mxCell>
        <mxCell id="6FTb0QfE17CixWi7cLc3-23" value="" style="verticalLabelPosition=bottom;sketch=1;aspect=fixed;html=1;verticalAlign=top;strokeColor=none;align=center;outlineConnect=0;shape=mxgraph.citrix.license_server;curveFitting=1;jiggle=2;" vertex="1" parent="1">
          <mxGeometry x="770" y="400" width="65" height="85" as="geometry" />
        </mxCell>
        <mxCell id="6FTb0QfE17CixWi7cLc3-24" value="" style="verticalLabelPosition=bottom;sketch=1;aspect=fixed;html=1;verticalAlign=top;strokeColor=none;align=center;outlineConnect=0;shape=mxgraph.citrix.license_server;curveFitting=1;jiggle=2;" vertex="1" parent="1">
          <mxGeometry x="1060" y="200" width="65" height="85" as="geometry" />
        </mxCell>
        <mxCell id="6FTb0QfE17CixWi7cLc3-25" value="" style="verticalLabelPosition=bottom;sketch=1;aspect=fixed;html=1;verticalAlign=top;strokeColor=none;align=center;outlineConnect=0;shape=mxgraph.citrix.license_server;curveFitting=1;jiggle=2;" vertex="1" parent="1">
          <mxGeometry x="1080" y="375" width="65" height="85" as="geometry" />
        </mxCell>
        <mxCell id="6FTb0QfE17CixWi7cLc3-26" value="&lt;font style=&quot;font-size: 20px;&quot;&gt;&lt;b&gt;本校智算中心&lt;/b&gt;&lt;/font&gt;" style="text;html=1;align=center;verticalAlign=middle;whiteSpace=wrap;rounded=0;sketch=1;curveFitting=1;jiggle=2;" vertex="1" parent="1">
          <mxGeometry x="775" y="140" width="190" height="30" as="geometry" />
        </mxCell>
        <mxCell id="6FTb0QfE17CixWi7cLc3-28" value="我们租用的服务器" style="text;html=1;align=center;verticalAlign=middle;whiteSpace=wrap;rounded=0;sketch=1;curveFitting=1;jiggle=2;" vertex="1" parent="1">
          <mxGeometry x="537.5" y="312.5" width="190" height="30" as="geometry" />
        </mxCell>
        <mxCell id="6FTb0QfE17CixWi7cLc3-29" value="我们租用的服务器" style="text;html=1;align=center;verticalAlign=middle;whiteSpace=wrap;rounded=0;sketch=1;curveFitting=1;jiggle=2;" vertex="1" parent="1">
          <mxGeometry x="537.5" y="523.5" width="190" height="30" as="geometry" />
        </mxCell>
        <mxCell id="6FTb0QfE17CixWi7cLc3-30" value="我们的个人计算机" style="text;html=1;align=center;verticalAlign=middle;whiteSpace=wrap;rounded=0;sketch=1;curveFitting=1;jiggle=2;" vertex="1" parent="1">
          <mxGeometry x="280" y="530" width="190" height="30" as="geometry" />
        </mxCell>
        <mxCell id="6FTb0QfE17CixWi7cLc3-31" value="互联网上的资源" style="text;html=1;align=center;verticalAlign=middle;whiteSpace=wrap;rounded=0;sketch=1;curveFitting=1;jiggle=2;" vertex="1" parent="1">
          <mxGeometry x="57.44999999999999" y="522" width="190" height="30" as="geometry" />
        </mxCell>
        <mxCell id="6FTb0QfE17CixWi7cLc3-32" value="互联网上的资源" style="text;html=1;align=center;verticalAlign=middle;whiteSpace=wrap;rounded=0;sketch=1;curveFitting=1;jiggle=2;" vertex="1" parent="1">
          <mxGeometry x="57.44999999999999" y="312.5" width="190" height="30" as="geometry" />
        </mxCell>
        <mxCell id="6FTb0QfE17CixWi7cLc3-34" value="" style="shape=flexArrow;endArrow=classic;startArrow=classic;html=1;rounded=0;sketch=1;curveFitting=1;jiggle=2;" edge="1" parent="1" source="6FTb0QfE17CixWi7cLc3-4" target="6FTb0QfE17CixWi7cLc3-5">
          <mxGeometry width="100" height="100" relative="1" as="geometry">
            <mxPoint x="490" y="570" as="sourcePoint" />
            <mxPoint x="590" y="470" as="targetPoint" />
          </mxGeometry>
        </mxCell>
        <mxCell id="6FTb0QfE17CixWi7cLc3-35" value="算力平台允许我们的电脑和服务器建立ssh连接管理服务器" style="text;html=1;align=center;verticalAlign=middle;whiteSpace=wrap;rounded=0;sketch=1;curveFitting=1;jiggle=2;" vertex="1" parent="1">
          <mxGeometry x="450" y="437" width="120" height="30" as="geometry" />
        </mxCell>
        <mxCell id="6FTb0QfE17CixWi7cLc3-37" value="" style="shape=flexArrow;endArrow=classic;startArrow=classic;html=1;rounded=0;sketch=1;curveFitting=1;jiggle=2;" edge="1" parent="1" source="6FTb0QfE17CixWi7cLc3-3" target="6FTb0QfE17CixWi7cLc3-4">
          <mxGeometry width="100" height="100" relative="1" as="geometry">
            <mxPoint x="220" y="560" as="sourcePoint" />
            <mxPoint x="394" y="560" as="targetPoint" />
          </mxGeometry>
        </mxCell>
        <mxCell id="6FTb0QfE17CixWi7cLc3-39" value="可以与互联网通信" style="text;html=1;align=center;verticalAlign=middle;whiteSpace=wrap;rounded=0;sketch=1;curveFitting=1;jiggle=2;" vertex="1" parent="1">
          <mxGeometry x="160" y="427.5" width="190" height="30" as="geometry" />
        </mxCell>
        <mxCell id="6FTb0QfE17CixWi7cLc3-41" value="" style="endArrow=classic;html=1;rounded=0;entryX=0.5;entryY=1;entryDx=0;entryDy=0;edgeStyle=orthogonalEdgeStyle;curved=1;startArrow=classic;startFill=1;sketch=1;curveFitting=1;jiggle=2;" edge="1" parent="1" source="6FTb0QfE17CixWi7cLc3-5" target="6FTb0QfE17CixWi7cLc3-30">
          <mxGeometry width="50" height="50" relative="1" as="geometry">
            <mxPoint x="580" y="650" as="sourcePoint" />
            <mxPoint x="630" y="600" as="targetPoint" />
            <Array as="points">
              <mxPoint x="640" y="610" />
              <mxPoint x="375" y="610" />
            </Array>
          </mxGeometry>
        </mxCell>
        <mxCell id="6FTb0QfE17CixWi7cLc3-42" value="&lt;span style=&quot;color: rgba(0, 0, 0, 0.85); font-family: Inter, -apple-system, BlinkMacSystemFont, &amp;quot;Segoe UI&amp;quot;, &amp;quot;PingFang SC&amp;quot;, &amp;quot;Hiragino Sans GB&amp;quot;, &amp;quot;Microsoft YaHei&amp;quot;, &amp;quot;Helvetica Neue&amp;quot;, Helvetica, Arial, sans-serif; font-style: normal; font-variant-ligatures: normal; font-variant-caps: normal; font-weight: 400; letter-spacing: normal; orphans: 2; text-indent: 0px; text-transform: none; widows: 2; word-spacing: 0px; -webkit-text-stroke-width: 0px; white-space: normal; background-color: rgb(255, 255, 255); text-decoration-thickness: initial; text-decoration-style: initial; text-decoration-color: initial; float: none; display: inline !important;&quot;&gt;&lt;font style=&quot;font-size: 13px;&quot;&gt;基于ssh连接，创建一个动态端口转发隧道让服务器可以通过这个隧道访问互联网，pip所需的包&lt;/font&gt;&lt;/span&gt;" style="text;whiteSpace=wrap;html=1;align=center;sketch=1;curveFitting=1;jiggle=2;" vertex="1" parent="1">
          <mxGeometry x="390" y="620" width="250" height="40" as="geometry" />
        </mxCell>
        <mxCell id="6FTb0QfE17CixWi7cLc3-44" value="" style="verticalLabelPosition=bottom;verticalAlign=top;html=1;shape=mxgraph.basic.tick;fillColor=#008a00;strokeColor=#005700;sketch=1;curveFitting=1;jiggle=2;fontColor=#ffffff;" vertex="1" parent="1">
          <mxGeometry x="485" y="568" width="60" height="52" as="geometry" />
        </mxCell>
        <mxCell id="6FTb0QfE17CixWi7cLc3-46" value="&lt;font style=&quot;font-size: 15px;&quot;&gt;&lt;b&gt;服务器集群&lt;/b&gt;&lt;/font&gt;" style="text;html=1;align=center;verticalAlign=middle;whiteSpace=wrap;rounded=0;sketch=1;curveFitting=1;jiggle=2;" vertex="1" parent="1">
          <mxGeometry x="790" y="370" width="190" height="30" as="geometry" />
        </mxCell>
      </root>
    </mxGraphModel>
  </diagram>
</mxfile>
